<svg id="visual" viewBox="0 0 900 600" width="900" height="600" xmlns="http://www.w3.org/2000/svg" xmlns:xlink="http://www.w3.org/1999/xlink" version="1.1"><path d="M0 478L21.5 470.2C43 462.3 86 446.7 128.8 440.3C171.7 434 214.3 437 257.2 432.2C300 427.3 343 414.7 385.8 409.2C428.7 403.7 471.3 405.3 514.2 413.2C557 421 600 435 642.8 444.7C685.7 454.3 728.3 459.7 771.2 455.7C814 451.7 857 438.3 878.5 431.7L900 425L900 601L878.5 601C857 601 814 601 771.2 601C728.3 601 685.7 601 642.8 601C600 601 557 601 514.2 601C471.3 601 428.7 601 385.8 601C343 601 300 601 257.2 601C214.3 601 171.7 601 128.8 601C86 601 43 601 21.5 601L0 601Z" fill="#354f52"></path><path d="M0 484L21.5 487C43 490 86 496 128.8 488.8C171.7 481.7 214.3 461.3 257.2 460.5C300 459.7 343 478.3 385.8 477.8C428.7 477.3 471.3 457.7 514.2 451.5C557 445.3 600 452.7 642.8 460.2C685.7 467.7 728.3 475.3 771.2 481.7C814 488 857 493 878.5 495.5L900 498L900 601L878.5 601C857 601 814 601 771.2 601C728.3 601 685.7 601 642.8 601C600 601 557 601 514.2 601C471.3 601 428.7 601 385.8 601C343 601 300 601 257.2 601C214.3 601 171.7 601 128.8 601C86 601 43 601 21.5 601L0 601Z" fill="#566e6c"></path><path d="M0 521L21.5 514.5C43 508 86 495 128.8 496.3C171.7 497.7 214.3 513.3 257.2 514C300 514.7 343 500.3 385.8 491.7C428.7 483 471.3 480 514.2 479.2C557 478.3 600 479.7 642.8 487.2C685.7 494.7 728.3 508.3 771.2 511.2C814 514 857 506 878.5 502L900 498L900 601L878.5 601C857 601 814 601 771.2 601C728.3 601 685.7 601 642.8 601C600 601 557 601 514.2 601C471.3 601 428.7 601 385.8 601C343 601 300 601 257.2 601C214.3 601 171.7 601 128.8 601C86 601 43 601 21.5 601L0 601Z" fill="#7a8f87"></path><path d="M0 504L21.5 509.8C43 515.7 86 527.3 128.8 534.3C171.7 541.3 214.3 543.7 257.2 544.2C300 544.7 343 543.3 385.8 538.2C428.7 533 471.3 524 514.2 523C557 522 600 529 642.8 534.2C685.7 539.3 728.3 542.7 771.2 539.5C814 536.3 857 526.7 878.5 521.8L900 517L900 601L878.5 601C857 601 814 601 771.2 601C728.3 601 685.7 601 642.8 601C600 601 557 601 514.2 601C471.3 601 428.7 601 385.8 601C343 601 300 601 257.2 601C214.3 601 171.7 601 128.8 601C86 601 43 601 21.5 601L0 601Z" fill="#a1b0a5"></path><path d="M0 557L21.5 555.7C43 554.3 86 551.7 128.8 552.5C171.7 553.3 214.3 557.7 257.2 556.3C300 555 343 548 385.8 545.2C428.7 542.3 471.3 543.7 514.2 550C557 556.3 600 567.7 642.8 567.3C685.7 567 728.3 555 771.2 550C814 545 857 547 878.5 548L900 549L900 601L878.5 601C857 601 814 601 771.2 601C728.3 601 685.7 601 642.8 601C600 601 557 601 514.2 601C471.3 601 428.7 601 385.8 601C343 601 300 601 257.2 601C214.3 601 171.7 601 128.8 601C86 601 43 601 21.5 601L0 601Z" fill="#cad2c5"></path></svg>