<svg id="visual" viewBox="0 0 900 600" width="900" height="600" xmlns="http://www.w3.org/2000/svg" xmlns:xlink="http://www.w3.org/1999/xlink" version="1.1"><path d="M0 120L21.5 127.8C43 135.7 86 151.3 128.8 157.7C171.7 164 214.3 161 257.2 165.8C300 170.7 343 183.3 385.8 188.8C428.7 194.3 471.3 192.7 514.2 184.8C557 177 600 163 642.8 153.3C685.7 143.7 728.3 138.3 771.2 142.3C814 146.3 857 159.7 878.5 166.3L900 173L900 0L878.5 0C857 0 814 0 771.2 0C728.3 0 685.7 0 642.8 0C600 0 557 0 514.2 0C471.3 0 428.7 0 385.8 0C343 0 300 0 257.2 0C214.3 0 171.7 0 128.8 0C86 0 43 0 21.5 0L0 0Z" fill="#354f52"></path><path d="M0 114L21.5 111C43 108 86 102 128.8 109.2C171.7 116.3 214.3 136.7 257.2 137.5C300 138.3 343 119.7 385.8 120.2C428.7 120.7 471.3 140.3 514.2 146.5C557 152.7 600 145.3 642.8 137.8C685.7 130.3 728.3 122.7 771.2 116.3C814 110 857 105 878.5 102.5L900 100L900 0L878.5 0C857 0 814 0 771.2 0C728.3 0 685.7 0 642.8 0C600 0 557 0 514.2 0C471.3 0 428.7 0 385.8 0C343 0 300 0 257.2 0C214.3 0 171.7 0 128.8 0C86 0 43 0 21.5 0L0 0Z" fill="#566e6c"></path><path d="M0 77L21.5 83.5C43 90 86 103 128.8 101.7C171.7 100.3 214.3 84.7 257.2 84C300 83.3 343 97.7 385.8 106.3C428.7 115 471.3 118 514.2 118.8C557 119.7 600 118.3 642.8 110.8C685.7 103.3 728.3 89.7 771.2 86.8C814 84 857 92 878.5 96L900 100L900 0L878.5 0C857 0 814 0 771.2 0C728.3 0 685.7 0 642.8 0C600 0 557 0 514.2 0C471.3 0 428.7 0 385.8 0C343 0 300 0 257.2 0C214.3 0 171.7 0 128.8 0C86 0 43 0 21.5 0L0 0Z" fill="#7a8f87"></path><path d="M0 94L21.5 88.2C43 82.3 86 70.7 128.8 63.7C171.7 56.7 214.3 54.3 257.2 53.8C300 53.3 343 54.7 385.8 59.8C428.7 65 471.3 74 514.2 75C557 76 600 69 642.8 63.8C685.7 58.7 728.3 55.3 771.2 58.5C814 61.7 857 71.3 878.5 76.2L900 81L900 0L878.5 0C857 0 814 0 771.2 0C728.3 0 685.7 0 642.8 0C600 0 557 0 514.2 0C471.3 0 428.7 0 385.8 0C343 0 300 0 257.2 0C214.3 0 171.7 0 128.8 0C86 0 43 0 21.5 0L0 0Z" fill="#a1b0a5"></path><path d="M0 41L21.5 42.3C43 43.7 86 46.3 128.8 45.5C171.7 44.7 214.3 40.3 257.2 41.7C300 43 343 50 385.8 52.8C428.7 55.7 471.3 54.3 514.2 48C557 41.7 600 30.3 642.8 30.7C685.7 31 728.3 43 771.2 48C814 53 857 51 878.5 50L900 49L900 0L878.5 0C857 0 814 0 771.2 0C728.3 0 685.7 0 642.8 0C600 0 557 0 514.2 0C471.3 0 428.7 0 385.8 0C343 0 300 0 257.2 0C214.3 0 171.7 0 128.8 0C86 0 43 0 21.5 0L0 0Z" fill="#cad2c5"></path></svg>