<svg id="visual" viewBox="0 0 900 600" width="900" height="600" xmlns="http://www.w3.org/2000/svg" xmlns:xlink="http://www.w3.org/1999/xlink" version="1.1"><g stroke-width="1" stroke-linejoin="bevel"><path d="M443 264L492 227L450 144Z" fill="#39555b" stroke="#39555b"></path><path d="M492 227L506.5 135L450 144Z" fill="#364f56" stroke="#364f56"></path><path d="M492 227L539.5 203L506.5 135Z" fill="#31444b" stroke="#31444b"></path><path d="M564.5 329L539.5 203L492 227Z" fill="#4c736d" stroke="#4c736d"></path><path d="M384 0L351.5 129L450 144Z" fill="#3c5b5f" stroke="#3c5b5f"></path><path d="M450 144L351.5 129L443 264Z" fill="#52796f" stroke="#52796f"></path><path d="M351.5 129L273.5 197L443 264Z" fill="#3c5b5f" stroke="#3c5b5f"></path><path d="M273.5 197L360.5 365L443 264Z" fill="#436767" stroke="#436767"></path><path d="M443 264L564.5 329L492 227Z" fill="#39555b" stroke="#39555b"></path><path d="M499 460L564.5 329L443 264Z" fill="#52796f" stroke="#52796f"></path><path d="M564.5 329L622 232L539.5 203Z" fill="#3c5b5f" stroke="#3c5b5f"></path><path d="M539.5 203L688 128L506.5 135Z" fill="#436767" stroke="#436767"></path><path d="M546.5 433L573.5 361L564.5 329Z" fill="#2f3e46" stroke="#2f3e46"></path><path d="M564.5 329L722 357L622 232Z" fill="#344951" stroke="#344951"></path><path d="M578.5 0L384 0L506.5 135Z" fill="#344951" stroke="#344951"></path><path d="M506.5 135L384 0L450 144Z" fill="#364f56" stroke="#364f56"></path><path d="M172 105L194 182L273.5 197Z" fill="#3c5b5f" stroke="#3c5b5f"></path><path d="M384 0L369.5 0L351.5 129Z" fill="#364f56" stroke="#364f56"></path><path d="M194 182L214 291L273.5 197Z" fill="#3c5b5f" stroke="#3c5b5f"></path><path d="M273.5 197L214 291L360.5 365Z" fill="#3c5b5f" stroke="#3c5b5f"></path><path d="M284 433L367.5 434L360.5 365Z" fill="#364f56" stroke="#364f56"></path><path d="M360.5 365L499 460L443 264Z" fill="#436767" stroke="#436767"></path><path d="M172 105L273.5 197L351.5 129Z" fill="#436767" stroke="#436767"></path><path d="M367.5 434L400.5 446L360.5 365Z" fill="#39555b" stroke="#39555b"></path><path d="M688 128L578.5 0L506.5 135Z" fill="#39555b" stroke="#39555b"></path><path d="M499 460L546.5 433L564.5 329Z" fill="#364f56" stroke="#364f56"></path><path d="M717 229L688 128L622 232Z" fill="#436767" stroke="#436767"></path><path d="M369.5 0L276 0L351.5 129Z" fill="#476d6a" stroke="#476d6a"></path><path d="M717 229L722 357L752.5 256Z" fill="#436767" stroke="#436767"></path><path d="M622 232L688 128L539.5 203Z" fill="#476d6a" stroke="#476d6a"></path><path d="M400.5 446L499 460L360.5 365Z" fill="#52796f" stroke="#52796f"></path><path d="M380.5 600L464 600L400.5 446Z" fill="#4c736d" stroke="#4c736d"></path><path d="M400.5 446L515 513L499 460Z" fill="#436767" stroke="#436767"></path><path d="M214 291L284 433L360.5 365Z" fill="#31444b" stroke="#31444b"></path><path d="M276 0L172 105L351.5 129Z" fill="#2f3e46" stroke="#2f3e46"></path><path d="M194 182L105.5 259L214 291Z" fill="#3f6163" stroke="#3f6163"></path><path d="M717 229L622 232L722 357Z" fill="#344951" stroke="#344951"></path><path d="M688 128L647 0L578.5 0Z" fill="#3f6163" stroke="#3f6163"></path><path d="M499 460L515 513L546.5 433Z" fill="#31444b" stroke="#31444b"></path><path d="M722 357L564.5 329L573.5 361Z" fill="#344951" stroke="#344951"></path><path d="M464 600L515 513L400.5 446Z" fill="#52796f" stroke="#52796f"></path><path d="M722 357L573.5 361L741.5 440Z" fill="#52796f" stroke="#52796f"></path><path d="M717 229L831.5 147L688 128Z" fill="#4c736d" stroke="#4c736d"></path><path d="M688 128L819.5 0L647 0Z" fill="#4c736d" stroke="#4c736d"></path><path d="M741.5 440L573.5 361L546.5 433Z" fill="#31444b" stroke="#31444b"></path><path d="M63.5 195L105.5 259L194 182Z" fill="#364f56" stroke="#364f56"></path><path d="M214 291L72.5 330L284 433Z" fill="#3f6163" stroke="#3f6163"></path><path d="M76.5 47L63.5 195L172 105Z" fill="#3c5b5f" stroke="#3c5b5f"></path><path d="M172 105L63.5 195L194 182Z" fill="#364f56" stroke="#364f56"></path><path d="M741.5 440L791.5 345L722 357Z" fill="#31444b" stroke="#31444b"></path><path d="M722 357L791.5 345L752.5 256Z" fill="#364f56" stroke="#364f56"></path><path d="M752.5 256L831.5 147L717 229Z" fill="#39555b" stroke="#39555b"></path><path d="M0 225L72.5 330L105.5 259Z" fill="#52796f" stroke="#52796f"></path><path d="M105.5 259L72.5 330L214 291Z" fill="#4c736d" stroke="#4c736d"></path><path d="M694 515L741.5 440L546.5 433Z" fill="#52796f" stroke="#52796f"></path><path d="M276 0L76.5 47L172 105Z" fill="#39555b" stroke="#39555b"></path><path d="M380.5 600L400.5 446L367.5 434Z" fill="#52796f" stroke="#52796f"></path><path d="M515 513L694 515L546.5 433Z" fill="#52796f" stroke="#52796f"></path><path d="M255 558L367.5 434L284 433Z" fill="#364f56" stroke="#364f56"></path><path d="M49.5 500L255 558L284 433Z" fill="#436767" stroke="#436767"></path><path d="M900 203L831.5 147L752.5 256Z" fill="#3f6163" stroke="#3f6163"></path><path d="M255 558L380.5 600L367.5 434Z" fill="#3f6163" stroke="#3f6163"></path><path d="M464 600L503.5 600L515 513Z" fill="#476d6a" stroke="#476d6a"></path><path d="M656 600L694 515L515 513Z" fill="#436767" stroke="#436767"></path><path d="M831.5 147L819.5 0L688 128Z" fill="#364f56" stroke="#364f56"></path><path d="M63.5 195L0 225L105.5 259Z" fill="#4c736d" stroke="#4c736d"></path><path d="M0 156L0 225L63.5 195Z" fill="#364f56" stroke="#364f56"></path><path d="M76.5 47L0 156L63.5 195Z" fill="#344951" stroke="#344951"></path><path d="M276 0L46.5 0L76.5 47Z" fill="#436767" stroke="#436767"></path><path d="M76.5 47L0 0L0 156Z" fill="#3c5b5f" stroke="#3c5b5f"></path><path d="M113.5 600L218 600L255 558Z" fill="#3c5b5f" stroke="#3c5b5f"></path><path d="M255 558L218 600L380.5 600Z" fill="#39555b" stroke="#39555b"></path><path d="M49.5 500L284 433L72.5 330Z" fill="#476d6a" stroke="#476d6a"></path><path d="M0 225L0 329L72.5 330Z" fill="#344951" stroke="#344951"></path><path d="M503.5 600L656 600L515 513Z" fill="#4c736d" stroke="#4c736d"></path><path d="M694 515L798.5 487L741.5 440Z" fill="#364f56" stroke="#364f56"></path><path d="M741.5 440L798.5 487L791.5 345Z" fill="#39555b" stroke="#39555b"></path><path d="M791.5 345L900 203L752.5 256Z" fill="#52796f" stroke="#52796f"></path><path d="M733.5 600L798.5 487L694 515Z" fill="#364f56" stroke="#364f56"></path><path d="M900 350L900 203L791.5 345Z" fill="#2f3e46" stroke="#2f3e46"></path><path d="M831.5 147L900 84L819.5 0Z" fill="#2f3e46" stroke="#2f3e46"></path><path d="M0 329L0 387L72.5 330Z" fill="#436767" stroke="#436767"></path><path d="M900 203L900 84L831.5 147Z" fill="#2f3e46" stroke="#2f3e46"></path><path d="M46.5 0L0 0L76.5 47Z" fill="#52796f" stroke="#52796f"></path><path d="M900 428L900 350L791.5 345Z" fill="#344951" stroke="#344951"></path><path d="M0 435L49.5 500L72.5 330Z" fill="#39555b" stroke="#39555b"></path><path d="M0 387L0 435L72.5 330Z" fill="#344951" stroke="#344951"></path><path d="M656 600L733.5 600L694 515Z" fill="#436767" stroke="#436767"></path><path d="M798.5 487L900 428L791.5 345Z" fill="#31444b" stroke="#31444b"></path><path d="M900 84L900 0L819.5 0Z" fill="#436767" stroke="#436767"></path><path d="M49.5 500L113.5 600L255 558Z" fill="#2f3e46" stroke="#2f3e46"></path><path d="M0 600L113.5 600L49.5 500Z" fill="#4c736d" stroke="#4c736d"></path><path d="M900 568L900 428L798.5 487Z" fill="#364f56" stroke="#364f56"></path><path d="M0 435L0 600L49.5 500Z" fill="#2f3e46" stroke="#2f3e46"></path><path d="M733.5 600L900 568L798.5 487Z" fill="#364f56" stroke="#364f56"></path><path d="M733.5 600L900 600L900 568Z" fill="#39555b" stroke="#39555b"></path></g></svg>